<?xml version="1.0" encoding="utf-8"?>
<!-- Generator: Adobe Illustrator 25.4.1, SVG Export Plug-In . SVG Version: 6.00 Build 0)  -->
<svg version="1.1" id="Calque_1" xmlns="http://www.w3.org/2000/svg" xmlns:xlink="http://www.w3.org/1999/xlink" x="0px" y="0px"
	 viewBox="0 0 448 458" style="enable-background:new 0 0 448 458;" xml:space="preserve">
<style type="text/css">
	.st0{fill:#727780;}
</style>
<path class="st0" d="M46,411.3c0,23,19.7,41.7,44,41.7l0,0h264.2c24.3,0,44-18.7,44-41.7l0,0v-292H46V411.3z M295.6,188.8
	c0-7.6,6.6-13.9,14.7-13.9s14.7,6.3,14.7,13.9v194.7c0,7.6-6.6,13.9-14.7,13.9s-14.7-6.3-14.7-13.9V188.8z M207.5,188.8
	c0-7.6,6.6-13.9,14.7-13.9s14.7,6.3,14.7,13.9v194.7c0,7.6-6.6,13.9-14.7,13.9s-14.7-6.3-14.7-13.9V188.8z M119.4,188.8
	c0-7.6,6.6-13.9,14.7-13.9s14.7,6.3,14.7,13.9v194.7c0,7.6-6.6,13.9-14.7,13.9s-14.7-6.3-14.7-13.9
	C119.4,383.5,119.4,188.8,119.4,188.8z M413,35.8H302.9l-8.6-16.3C290.5,12.4,282.9,8,274.6,8H169.7c-8.3,0-16,4.4-19.6,11.6
	l-8.6,16.3H31.4c-8.1,0-14.7,6.3-14.7,13.9v27.8c0,7.6,6.6,13.9,14.7,13.9H413c8.1,0,14.7-6.3,14.7-13.9V49.7
	C427.7,42.1,421.1,35.8,413,35.8z"/>
</svg>
