<?xml version="1.0" encoding="utf-8"?>
<!-- Generator: Adobe Illustrator 25.4.1, SVG Export Plug-In . SVG Version: 6.00 Build 0)  -->
<svg version="1.1" id="Calque_1" xmlns="http://www.w3.org/2000/svg" xmlns:xlink="http://www.w3.org/1999/xlink" x="0px" y="0px"
	 viewBox="0 0 512 512" style="enable-background:new 0 0 512 512;" xml:space="preserve">
<style type="text/css">
	.st0{fill:#727780;}
</style>
<path class="st0" d="M437.6,166.2l-34,36.3c-3.5,3.7-9.1,3.7-12.5,0L309.2,115c-3.5-3.7-3.5-9.7,0-13.4l34-36.3
	c13.8-14.7,36.2-14.7,50.1,0l44.3,47.4C451.5,127.4,451.5,151.4,437.6,166.2z M277.4,132.5L81.6,335.1l-15.8,93.7
	c-2.2,12.7,8.5,23.6,20.7,21.4l90.6-16.4l195.8-202.6c3.5-3.6,3.5-9.5,0-13.1l-82.7-85.6C286.6,128.9,280.9,128.9,277.4,132.5
	L277.4,132.5z M152,322.1c-4.3-4.3-4.3-11.3,0-15.6l121.4-121.4c4.3-4.3,11.3-4.3,15.6,0s4.3,11.3,0,15.6L167.6,322.1
	C163.3,326.4,156.4,326.4,152,322.1L152,322.1z M123.6,388.4h37.8V417l-50.8,8.9l-24.5-24.5l8.9-50.8h28.6V388.4z M182,354
	c-4.3-4.3-4.3-11.3,0-15.6L303.4,217c4.3-4.3,11.3-4.3,15.6,0s4.3,11.3,0,15.6L197.6,354C193.3,358.3,186.3,358.3,182,354L182,354z"
	/>
</svg>
