<?xml version="1.0" encoding="utf-8"?>
<!-- Generator: Adobe Illustrator 25.4.1, SVG Export Plug-In . SVG Version: 6.00 Build 0)  -->
<svg version="1.1" id="Calque_1" xmlns="http://www.w3.org/2000/svg" xmlns:xlink="http://www.w3.org/1999/xlink" x="0px" y="0px"
	 viewBox="0 0 505 530.4" style="enable-background:new 0 0 505 530.4;" xml:space="preserve">
<style type="text/css">
	.st0{display:none;}
	.st1{display:inline;}
	.st2{fill:#C89108;}
	.st3{fill:#FFFFFF;}
	.st4{display:inline;opacity:0.19;}
	.st5{fill:#727780;}
	.st6{display:inline;fill:#C89108;}
</style>
<g id="Calque_1_00000094610193940328067360000000977529890981535403_" class="st0">
	<g id="Calque_1_00000047739104900105449320000000049531348518386353_" class="st1">
		<path class="st2" d="M250.4,77.9c-124.8,0-226,101.1-226,226s101.1,226,226,226s226-101.1,226-226S375.2,77.9,250.4,77.9z
			 M334.6,363.1L334.6,363.1l-18.2,22.8c-5,6.3-14.2,7.3-20.5,2.3l0,0l0,0l-61.1-45.3c-8.6-6.9-13.7-17.4-13.7-28.5V172.7
			c0-8.1,6.5-14.6,14.6-14.6h29.2c8.1,0,14.6,6.5,14.6,14.6v131.2l52.9,38.7C338.7,347.6,339.7,356.8,334.6,363.1
			C334.7,363.1,334.6,363.1,334.6,363.1z"/>
	</g>
	<g id="Calque_2_00000116199616369206242480000010885646303530196927_" class="st1">
		<g>
			<path class="st3" d="M252.5,510.9c-57.5,0-111.5-22.4-152.1-63s-63-94.7-63-152.1s22.4-111.5,63-152.1s94.7-63,152.1-63
				s111.5,22.4,152.1,63s63,94.7,63,152.1s-22.4,111.5-63,152.1S310,510.9,252.5,510.9z"/>
			<path class="st2" d="M252.5,100.1c52.3,0,101.4,20.4,138.3,57.3c37,37,57.3,86.1,57.3,138.3S427.7,397.1,390.8,434
				c-37,37-86.1,57.3-138.3,57.3S151.1,471,114.2,434.1c-37-37-57.3-86.1-57.3-138.3s20.4-101.4,57.3-138.3
				C151.1,120.4,200.2,100.1,252.5,100.1 M252.5,61.1c-129.6,0-234.6,105.1-234.6,234.6S123,530.3,252.5,530.3
				s234.6-105.1,234.6-234.6S382.1,61.1,252.5,61.1L252.5,61.1z"/>
		</g>
		<path class="st2" d="M249.5,329.1h-2.1c-8.7,0-15.6-6.4-15.6-14.2V173.3c0-7.9,7-14.2,15.6-14.2h2.1c8.7,0,15.6,6.4,15.6,14.2
			v141.5C265.1,322.7,258,329.1,249.5,329.1z"/>
		<path class="st2" d="M243.4,324.6L243.4,324.6c-6.9-5.7-6.3-15.7,1.3-20.7l91.1-59.4c5.6-3.7,13.3-3.2,18.4,1l0,0
			c6.9,5.7,6.3,15.7-1.3,20.7l-91.1,59.4C256.2,329.2,248.6,328.8,243.4,324.6z"/>
		<path class="st2" d="M185.3,37.3h29.5v45.8c22.6,0.5,44.9,0.3,67.4,0.7V37.3h29.5c7,0,12.6-3.2,12.6-7V7c0-3.9-5.7-7-12.6-7H185.3
			c-7,0-12.6,3.2-12.6,7v23.4C172.7,34.1,178.4,37.3,185.3,37.3z"/>
	</g>
</g>
<g id="Calque_3" class="st0">
	<g class="st4">
		<circle class="st5" cx="253" cy="299.9" r="216"/>
	</g>
</g>
<g id="Calque_1_-_copie">
	<g id="Calque_1_00000114790735712161928430000010017689431222823577_" class="st0">
		<path class="st6" d="M250.4,77.9c-124.8,0-226,101.1-226,226s101.1,226,226,226s226-101.1,226-226S375.2,77.9,250.4,77.9z
			 M334.6,363.1L334.6,363.1l-18.2,22.8c-5,6.3-14.2,7.3-20.5,2.3l0,0l0,0l-61.1-45.3c-8.6-6.9-13.7-17.4-13.7-28.5V172.7
			c0-8.1,6.5-14.6,14.6-14.6h29.2c8.1,0,14.6,6.5,14.6,14.6v131.2l52.9,38.7C338.7,347.6,339.7,356.8,334.6,363.1
			C334.7,363.1,334.6,363.1,334.6,363.1z"/>
	</g>
	<g id="Calque_2_00000029004974267636633560000005625812149626214022_">
		<g>
			<path class="st5" d="M253.1,106.9c51.1,0,99.1,19.9,135.2,56c36.2,36.2,56,84.2,56,135.2s-19.9,99.1-56,135.2
				c-36.2,36.2-84.2,56-135.2,56s-99.1-19.8-135.2-55.9c-36.2-36.2-56-84.2-56-135.2s19.9-99.1,56-135.2
				C154,126.7,202,106.9,253.1,106.9 M252.5,61.1c-129.6,0-234.6,105.1-234.6,234.6S123,530.3,252.5,530.3s234.6-105.1,234.6-234.6
				S382.1,61.1,252.5,61.1L252.5,61.1z"/>
		</g>
		<path class="st5" d="M249.5,329.1h-2.1c-8.7,0-15.6-6.4-15.6-14.2V173.3c0-7.9,7-14.2,15.6-14.2h2.1c8.7,0,15.6,6.4,15.6,14.2
			v141.5C265.1,322.7,258,329.1,249.5,329.1z"/>
		<path class="st5" d="M243.4,324.6L243.4,324.6c-6.9-5.7-6.3-15.7,1.3-20.7l91.1-59.4c5.6-3.7,13.3-3.2,18.4,1l0,0
			c6.9,5.7,6.3,15.7-1.3,20.7l-91.1,59.4C256.2,329.2,248.6,328.8,243.4,324.6z"/>
		<path class="st5" d="M185.3,37.3h29.5v45.8c22.6,0.5,44.9,0.3,67.4,0.7V37.3h29.5c7,0,12.6-3.2,12.6-7V7c0-3.9-5.7-7-12.6-7H185.3
			c-7,0-12.6,3.2-12.6,7v23.4C172.7,34.1,178.4,37.3,185.3,37.3z"/>
	</g>
</g>
</svg>
