<?xml version="1.0" encoding="utf-8"?>
<!-- Generator: Adobe Illustrator 25.4.1, SVG Export Plug-In . SVG Version: 6.00 Build 0)  -->
<svg version="1.1" xmlns="http://www.w3.org/2000/svg" xmlns:xlink="http://www.w3.org/1999/xlink" x="0px" y="0px"
	 viewBox="0 0 505 530.4" style="enable-background:new 0 0 505 530.4;" xml:space="preserve">
<style type="text/css">
	.st0{display:none;}
	.st1{display:inline;}
	.st2{fill:#C89108;}
	.st3{fill:#FFFFFF;}
	.st4{opacity:0.19;}
	.st5{fill:#727780;}
	.st6{display:inline;fill:#C89108;}
	.st7{display:inline;opacity:0.19;}
	.st8{fill:#FFFFFF;stroke:#FFFFFF;stroke-width:11;stroke-miterlimit:10;}
	.st9{display:none;fill:#C89108;}
</style>
<g id="Calque_1" class="st0">
	<g id="Calque_1_00000017478321496268659100000014528359998450612875_">
		<g id="Calque_1_00000094610193940328067360000000977529890981535403_" class="st1">
			<g id="Calque_1_00000047739104900105449320000000049531348518386353_">
				<path class="st2" d="M250.4,77.9c-124.8,0-226,101.1-226,226s101.1,226,226,226s226-101.1,226-226S375.2,77.9,250.4,77.9z
					 M334.6,363.1L334.6,363.1l-18.2,22.8c-5,6.3-14.2,7.3-20.5,2.3l0,0l0,0l-61.1-45.3c-8.6-6.9-13.7-17.4-13.7-28.5V172.7
					c0-8.1,6.5-14.6,14.6-14.6h29.2c8.1,0,14.6,6.5,14.6,14.6v131.2l52.9,38.7C338.7,347.6,339.7,356.8,334.6,363.1
					C334.7,363.1,334.6,363.1,334.6,363.1z"/>
			</g>
			<g id="Calque_2_00000116199616369206242480000010885646303530196927_">
				<g>
					<path class="st3" d="M252.5,510.9c-57.5,0-111.5-22.4-152.1-63s-63-94.7-63-152.1s22.4-111.5,63-152.1s94.7-63,152.1-63
						s111.5,22.4,152.1,63s63,94.7,63,152.1s-22.4,111.5-63,152.1S310,510.9,252.5,510.9z"/>
					<path class="st2" d="M252.5,100.1c52.3,0,101.4,20.4,138.3,57.3c37,37,57.3,86.1,57.3,138.3S427.7,397.1,390.8,434
						c-37,37-86.1,57.3-138.3,57.3S151.1,471,114.2,434.1c-37-37-57.3-86.1-57.3-138.3s20.4-101.4,57.3-138.3
						C151.1,120.4,200.2,100.1,252.5,100.1 M252.5,61.1c-129.6,0-234.6,105.1-234.6,234.6S123,530.3,252.5,530.3
						s234.6-105.1,234.6-234.6S382.1,61.1,252.5,61.1L252.5,61.1z"/>
				</g>
				<path class="st2" d="M249.5,329.1h-2.1c-8.7,0-15.6-6.4-15.6-14.2V173.3c0-7.9,7-14.2,15.6-14.2h2.1c8.7,0,15.6,6.4,15.6,14.2
					v141.5C265.1,322.7,258,329.1,249.5,329.1z"/>
				<path class="st2" d="M243.4,324.6L243.4,324.6c-6.9-5.7-6.3-15.7,1.3-20.7l91.1-59.4c5.6-3.7,13.3-3.2,18.4,1l0,0
					c6.9,5.7,6.3,15.7-1.3,20.7l-91.1,59.4C256.2,329.2,248.6,328.8,243.4,324.6z"/>
				<path class="st2" d="M185.3,37.3h29.5v45.8c22.6,0.5,44.9,0.3,67.4,0.7V37.3h29.5c7,0,12.6-3.2,12.6-7V7c0-3.9-5.7-7-12.6-7
					H185.3c-7,0-12.6,3.2-12.6,7v23.4C172.7,34.1,178.4,37.3,185.3,37.3z"/>
			</g>
		</g>
		<g id="Calque_3" class="st1">
			<g class="st4">
				<circle class="st5" cx="253" cy="299.9" r="216"/>
			</g>
		</g>
		<g id="Calque_1_-_copie" class="st1">
			<g id="Calque_1_00000114790735712161928430000010017689431222823577_" class="st0">
				<path class="st6" d="M250.4,77.9c-124.8,0-226,101.1-226,226s101.1,226,226,226s226-101.1,226-226S375.2,77.9,250.4,77.9z
					 M334.6,363.1L334.6,363.1l-18.2,22.8c-5,6.3-14.2,7.3-20.5,2.3l0,0l0,0l-61.1-45.3c-8.6-6.9-13.7-17.4-13.7-28.5V172.7
					c0-8.1,6.5-14.6,14.6-14.6h29.2c8.1,0,14.6,6.5,14.6,14.6v131.2l52.9,38.7C338.7,347.6,339.7,356.8,334.6,363.1
					C334.7,363.1,334.6,363.1,334.6,363.1z"/>
			</g>
			<g id="Calque_2_00000029004974267636633560000005625812149626214022_">
				<g>
					<path class="st5" d="M253.1,106.9c51.1,0,99.1,19.9,135.2,56c36.2,36.2,56,84.2,56,135.2s-19.9,99.1-56,135.2
						c-36.2,36.2-84.2,56-135.2,56s-99.1-19.8-135.2-55.9c-36.2-36.2-56-84.2-56-135.2s19.9-99.1,56-135.2
						C154,126.7,202,106.9,253.1,106.9 M252.5,61.1c-129.6,0-234.6,105.1-234.6,234.6S123,530.3,252.5,530.3
						s234.6-105.1,234.6-234.6S382.1,61.1,252.5,61.1L252.5,61.1z"/>
				</g>
				<path class="st5" d="M249.5,329.1h-2.1c-8.7,0-15.6-6.4-15.6-14.2V173.3c0-7.9,7-14.2,15.6-14.2h2.1c8.7,0,15.6,6.4,15.6,14.2
					v141.5C265.1,322.7,258,329.1,249.5,329.1z"/>
				<path class="st5" d="M243.4,324.6L243.4,324.6c-6.9-5.7-6.3-15.7,1.3-20.7l91.1-59.4c5.6-3.7,13.3-3.2,18.4,1l0,0
					c6.9,5.7,6.3,15.7-1.3,20.7l-91.1,59.4C256.2,329.2,248.6,328.8,243.4,324.6z"/>
				<path class="st5" d="M185.3,37.3h29.5v45.8c22.6,0.5,44.9,0.3,67.4,0.7V37.3h29.5c7,0,12.6-3.2,12.6-7V7c0-3.9-5.7-7-12.6-7
					H185.3c-7,0-12.6,3.2-12.6,7v23.4C172.7,34.1,178.4,37.3,185.3,37.3z"/>
			</g>
		</g>
	</g>
	<g id="Calque_1_-_copie_00000023276969218614698850000004432582241884039856_" class="st1">
		<g id="Calque_1_00000005969638738651075780000016621049254992733871_" class="st0">
			<g id="Calque_1_00000183930734324006647120000008120400466588614590_" class="st1">
				<path class="st2" d="M250.4,77.9c-124.8,0-226,101.1-226,226s101.1,226,226,226s226-101.1,226-226S375.2,77.9,250.4,77.9z
					 M334.6,363.1L334.6,363.1l-18.2,22.8c-5,6.3-14.2,7.3-20.5,2.3l0,0l0,0l-61.1-45.3c-8.6-6.9-13.7-17.4-13.7-28.5V172.7
					c0-8.1,6.5-14.6,14.6-14.6h29.2c8.1,0,14.6,6.5,14.6,14.6v131.2l52.9,38.7C338.7,347.6,339.7,356.8,334.6,363.1
					C334.7,363.1,334.6,363.1,334.6,363.1z"/>
			</g>
			<g id="Calque_2_00000052085755011008633870000006512180209683668629_" class="st1">
				<g>
					<path class="st3" d="M252.5,510.9c-57.5,0-111.5-22.4-152.1-63s-63-94.7-63-152.1s22.4-111.5,63-152.1s94.7-63,152.1-63
						s111.5,22.4,152.1,63s63,94.7,63,152.1s-22.4,111.5-63,152.1S310,510.9,252.5,510.9z"/>
					<path class="st2" d="M252.5,100.1c52.3,0,101.4,20.4,138.3,57.3c37,37,57.3,86.1,57.3,138.3S427.7,397.1,390.8,434
						c-37,37-86.1,57.3-138.3,57.3S151.1,471,114.2,434.1c-37-37-57.3-86.1-57.3-138.3s20.4-101.4,57.3-138.3
						C151.1,120.4,200.2,100.1,252.5,100.1 M252.5,61.1c-129.6,0-234.6,105.1-234.6,234.6S123,530.3,252.5,530.3
						s234.6-105.1,234.6-234.6S382.1,61.1,252.5,61.1L252.5,61.1z"/>
				</g>
				<path class="st2" d="M249.5,329.1h-2.1c-8.7,0-15.6-6.4-15.6-14.2V173.3c0-7.9,7-14.2,15.6-14.2h2.1c8.7,0,15.6,6.4,15.6,14.2
					v141.5C265.1,322.7,258,329.1,249.5,329.1z"/>
				<path class="st2" d="M243.4,324.6L243.4,324.6c-6.9-5.7-6.3-15.7,1.3-20.7l91.1-59.4c5.6-3.7,13.3-3.2,18.4,1l0,0
					c6.9,5.7,6.3,15.7-1.3,20.7l-91.1,59.4C256.2,329.2,248.6,328.8,243.4,324.6z"/>
				<path class="st2" d="M185.3,37.3h29.5v45.8c22.6,0.5,44.9,0.3,67.4,0.7V37.3h29.5c7,0,12.6-3.2,12.6-7V7c0-3.9-5.7-7-12.6-7
					H185.3c-7,0-12.6,3.2-12.6,7v23.4C172.7,34.1,178.4,37.3,185.3,37.3z"/>
			</g>
		</g>
		<g id="Calque_3_00000120538131969526072910000011814087383337575576_" class="st0">
			<g class="st7">
				<circle class="st5" cx="253" cy="299.9" r="216"/>
			</g>
		</g>
		<g id="Calque_1_-_copie_00000125587968522485105930000000116794681360336024_">
			<circle class="st2" cx="252.5" cy="298.1" r="197.5"/>
			<g id="Calque_2_00000176738378170793145240000008774776764986262202_">
				<g>
					<path class="st2" d="M253.1,106.9c51.1,0,99.1,19.9,135.2,56c36.2,36.2,56,84.2,56,135.2s-19.9,99.1-56,135.2
						c-36.2,36.2-84.2,56-135.2,56s-99.1-19.8-135.2-55.9c-36.2-36.2-56-84.2-56-135.2s19.9-99.1,56-135.2
						C154,126.7,202,106.9,253.1,106.9 M252.5,61.1c-129.6,0-234.6,105.1-234.6,234.6S123,530.3,252.5,530.3
						s234.6-105.1,234.6-234.6S382.1,61.1,252.5,61.1L252.5,61.1z"/>
				</g>
				<path class="st3" d="M251.6,329.1h-2.4c-9.7,0-17.5-7.2-17.5-15.9V154.7c0-8.8,7.8-15.9,17.5-15.9h2.4c9.7,0,17.5,7.2,17.5,15.9
					v158.4C269.1,321.9,261.1,329.1,251.6,329.1z"/>
				<path class="st8" d="M244.8,324.1L244.8,324.1c-7.7-6.4-7.1-17.6,1.5-23.2l102-66.5c6.3-4.1,14.9-3.6,20.6,1.1l0,0
					c7.7,6.4,7.1,17.6-1.5,23.2l-102,66.5C259.1,329.2,250.6,328.8,244.8,324.1z"/>
				<path class="st2" d="M185.3,37.3h29.5v45.8c22.6,0.5,44.9,0.3,67.4,0.7V37.3h29.5c7,0,12.6-3.2,12.6-7V7c0-3.9-5.7-7-12.6-7
					H185.3c-7,0-12.6,3.2-12.6,7v23.4C172.7,34.1,178.4,37.3,185.3,37.3z"/>
			</g>
		</g>
	</g>
</g>
<g id="Calque_1_-_copie_00000033362731712275527160000014212220508521049228_">
	<g id="Calque_1_00000116948279693634922770000017369682791144100023_" class="st0">
		<g id="Calque_1_00000157294414995297128900000012387323458751016848_" class="st1">
			<g id="Calque_1_00000071521372940460174300000009076661549926648744_">
				<path class="st2" d="M250.4,77.9c-124.8,0-226,101.1-226,226s101.1,226,226,226s226-101.1,226-226S375.2,77.9,250.4,77.9z
					 M334.6,363.1L334.6,363.1l-18.2,22.8c-5,6.3-14.2,7.3-20.5,2.3l0,0l0,0l-61.1-45.3c-8.6-6.9-13.7-17.4-13.7-28.5V172.7
					c0-8.1,6.5-14.6,14.6-14.6h29.2c8.1,0,14.6,6.5,14.6,14.6v131.2l52.9,38.7C338.7,347.6,339.7,356.8,334.6,363.1
					C334.7,363.1,334.6,363.1,334.6,363.1z"/>
			</g>
			<g id="Calque_2_00000034806689479455388900000005264508639123051916_">
				<g>
					<path class="st3" d="M252.5,510.9c-57.5,0-111.5-22.4-152.1-63s-63-94.7-63-152.1s22.4-111.5,63-152.1s94.7-63,152.1-63
						s111.5,22.4,152.1,63s63,94.7,63,152.1s-22.4,111.5-63,152.1S310,510.9,252.5,510.9z"/>
					<path class="st2" d="M252.5,100.1c52.3,0,101.4,20.4,138.3,57.3c37,37,57.3,86.1,57.3,138.3S427.7,397.1,390.8,434
						c-37,37-86.1,57.3-138.3,57.3S151.1,471,114.2,434.1c-37-37-57.3-86.1-57.3-138.3s20.4-101.4,57.3-138.3
						C151.1,120.4,200.2,100.1,252.5,100.1 M252.5,61.1c-129.6,0-234.6,105.1-234.6,234.6S123,530.3,252.5,530.3
						s234.6-105.1,234.6-234.6S382.1,61.1,252.5,61.1L252.5,61.1z"/>
				</g>
				<path class="st2" d="M249.5,329.1h-2.1c-8.7,0-15.6-6.4-15.6-14.2V173.3c0-7.9,7-14.2,15.6-14.2h2.1c8.7,0,15.6,6.4,15.6,14.2
					v141.5C265.1,322.7,258,329.1,249.5,329.1z"/>
				<path class="st2" d="M243.4,324.6L243.4,324.6c-6.9-5.7-6.3-15.7,1.3-20.7l91.1-59.4c5.6-3.7,13.3-3.2,18.4,1l0,0
					c6.9,5.7,6.3,15.7-1.3,20.7l-91.1,59.4C256.2,329.2,248.6,328.8,243.4,324.6z"/>
				<path class="st2" d="M185.3,37.3h29.5v45.8c22.6,0.5,44.9,0.3,67.4,0.7V37.3h29.5c7,0,12.6-3.2,12.6-7V7c0-3.9-5.7-7-12.6-7
					H185.3c-7,0-12.6,3.2-12.6,7v23.4C172.7,34.1,178.4,37.3,185.3,37.3z"/>
			</g>
		</g>
		<g id="Calque_3_00000093880583505056042130000014506980782328235654_" class="st1">
			<g class="st4">
				<circle class="st5" cx="253" cy="299.9" r="216"/>
			</g>
		</g>
		<g id="Calque_1_-_copie_00000121252528207522714640000006735101119394555816_" class="st1">
			<g id="Calque_1_00000155865351443829051740000013085641328936622977_" class="st0">
				<path class="st6" d="M250.4,77.9c-124.8,0-226,101.1-226,226s101.1,226,226,226s226-101.1,226-226S375.2,77.9,250.4,77.9z
					 M334.6,363.1L334.6,363.1l-18.2,22.8c-5,6.3-14.2,7.3-20.5,2.3l0,0l0,0l-61.1-45.3c-8.6-6.9-13.7-17.4-13.7-28.5V172.7
					c0-8.1,6.5-14.6,14.6-14.6h29.2c8.1,0,14.6,6.5,14.6,14.6v131.2l52.9,38.7C338.7,347.6,339.7,356.8,334.6,363.1
					C334.7,363.1,334.6,363.1,334.6,363.1z"/>
			</g>
			<g id="Calque_2_00000107562886340283322200000013179514539747703206_">
				<g>
					<path class="st5" d="M253.1,106.9c51.1,0,99.1,19.9,135.2,56c36.2,36.2,56,84.2,56,135.2s-19.9,99.1-56,135.2
						c-36.2,36.2-84.2,56-135.2,56s-99.1-19.8-135.2-55.9c-36.2-36.2-56-84.2-56-135.2s19.9-99.1,56-135.2
						C154,126.7,202,106.9,253.1,106.9 M252.5,61.1c-129.6,0-234.6,105.1-234.6,234.6S123,530.3,252.5,530.3
						s234.6-105.1,234.6-234.6S382.1,61.1,252.5,61.1L252.5,61.1z"/>
				</g>
				<path class="st5" d="M249.5,329.1h-2.1c-8.7,0-15.6-6.4-15.6-14.2V173.3c0-7.9,7-14.2,15.6-14.2h2.1c8.7,0,15.6,6.4,15.6,14.2
					v141.5C265.1,322.7,258,329.1,249.5,329.1z"/>
				<path class="st5" d="M243.4,324.6L243.4,324.6c-6.9-5.7-6.3-15.7,1.3-20.7l91.1-59.4c5.6-3.7,13.3-3.2,18.4,1l0,0
					c6.9,5.7,6.3,15.7-1.3,20.7l-91.1,59.4C256.2,329.2,248.6,328.8,243.4,324.6z"/>
				<path class="st5" d="M185.3,37.3h29.5v45.8c22.6,0.5,44.9,0.3,67.4,0.7V37.3h29.5c7,0,12.6-3.2,12.6-7V7c0-3.9-5.7-7-12.6-7
					H185.3c-7,0-12.6,3.2-12.6,7v23.4C172.7,34.1,178.4,37.3,185.3,37.3z"/>
			</g>
		</g>
	</g>
	<g id="Calque_1_-_copie_00000047030636087908349350000007921333814488696252_">
		<g id="Calque_1_00000047782503069715603710000007473888089214007216_" class="st0">
			<g id="Calque_1_00000169537430375322182480000010330968841139367060_" class="st1">
				<path class="st2" d="M250.8,44.5c-134,0-242.7,108.6-242.7,242.7s108.6,242.7,242.7,242.7s242.7-108.6,242.7-242.7
					S384.8,44.5,250.8,44.5z M341.3,350.8L341.3,350.8l-19.5,24.5c-5.4,6.8-15.2,7.8-22,2.5l0,0l0,0l-65.6-48.6
					c-9.2-7.4-14.7-18.7-14.7-30.6V146.3c0-8.7,7-15.7,15.7-15.7h31.4c8.7,0,15.7,7,15.7,15.7v140.9l56.8,41.6
					C345.7,334.1,346.7,344,341.3,350.8C341.4,350.8,341.3,350.8,341.3,350.8z"/>
			</g>
			<g id="Calque_2_00000087399343901290047460000011134157563513530240_" class="st1">
				<g>
					<path class="st3" d="M253.1,509.5c-61.7,0-119.7-24.1-163.3-67.6S22.1,340.1,22.1,278.5s24.1-119.7,67.6-163.3
						s101.7-67.6,163.3-67.6s119.7,24.1,163.3,67.6s67.6,101.7,67.6,163.3S460,398.2,416.4,441.8S314.8,509.5,253.1,509.5z"/>
					<path class="st2" d="M253.1,68.4c56.2,0,108.9,21.9,148.5,61.5c39.7,39.7,61.5,92.4,61.5,148.5s-21.9,108.9-61.5,148.5
						c-39.7,39.7-92.4,61.5-148.5,61.5S144.2,466.6,104.6,427c-39.7-39.7-61.5-92.4-61.5-148.5S65,169.6,104.6,130
						C144.2,90.2,196.9,68.4,253.1,68.4 M253.1,26.5C113.9,26.5,1.2,139.3,1.2,278.4S114,530.3,253.1,530.3S505,417.4,505,278.4
						S392.3,26.5,253.1,26.5L253.1,26.5z"/>
				</g>
				<path class="st2" d="M249.9,314.3h-2.3c-9.3,0-16.8-6.9-16.8-15.2V147c0-8.5,7.5-15.2,16.8-15.2h2.3c9.3,0,16.8,6.9,16.8,15.2
					v151.9C266.6,307.4,259,314.3,249.9,314.3z"/>
				<path class="st2" d="M243.3,309.4L243.3,309.4c-7.4-6.1-6.8-16.9,1.4-22.2l97.8-63.8c6-4,14.3-3.4,19.8,1.1l0,0
					c7.4,6.1,6.8,16.9-1.4,22.2l-97.8,63.8C257.1,314.4,248.9,313.9,243.3,309.4z"/>
				<path class="st2" d="M180.9,0.9h31.7v49.2c24.3,0.5,48.2,0.3,72.4,0.8V0.9h31.7c7.5,0,13.5-3.4,13.5-7.5v-25
					c0-4.2-6.1-7.5-13.5-7.5H180.9c-7.5,0-13.5,3.4-13.5,7.5v25.1C167.4-2.5,173.5,0.9,180.9,0.9z"/>
			</g>
		</g>
		<g id="Calque_3_00000168826048589948158390000007661986086160953493_" class="st0">
			<g class="st7">
				<circle class="st5" cx="253.6" cy="282.9" r="231.9"/>
			</g>
		</g>
		<g id="Calque_1_-_copie_00000151519210878403076300000003560744362298011809_">
			<circle class="st2" cx="253.1" cy="281" r="212.1"/>
			<g id="Calque_2_00000137119490861160641120000004248806844921456303_">
				<g>
					<path class="st2" d="M253.7,75.7c54.9,0,106.4,21.4,145.2,60.1C437.8,174.7,459,226.2,459,281s-21.4,106.4-60.1,145.2
						c-38.9,38.9-90.4,60.1-145.2,60.1s-106.4-21.3-145.2-60c-38.9-38.9-60.1-90.4-60.1-145.2s21.4-106.4,60.1-145.2
						C147.3,96.9,198.9,75.7,253.7,75.7 M253.1,26.5C113.9,26.5,1.2,139.3,1.2,278.4S114,530.3,253.1,530.3S505,417.4,505,278.4
						S392.3,26.5,253.1,26.5L253.1,26.5z"/>
				</g>
				<path class="st3" d="M252.1,314.3h-2.6c-10.4,0-18.8-7.7-18.8-17.1V127c0-9.4,8.4-17.1,18.8-17.1h2.6c10.4,0,18.8,7.7,18.8,17.1
					v170.1C270.9,306.5,262.3,314.3,252.1,314.3z"/>
				<path class="st8" d="M244.8,308.9L244.8,308.9c-8.3-6.9-7.6-18.9,1.6-24.9L356,212.6c6.8-4.4,16-3.9,22.1,1.2l0,0
					c8.3,6.9,7.6,18.9-1.6,24.9l-109.5,71.4C260.2,314.4,251.1,313.9,244.8,308.9z"/>
				<path class="st9" d="M180.9,0.9h31.7v49.2c24.3,0.5,48.2,0.3,72.4,0.8V0.9h31.7c7.5,0,13.5-3.4,13.5-7.5v-25
					c0-4.2-6.1-7.5-13.5-7.5H180.9c-7.5,0-13.5,3.4-13.5,7.5v25.1C167.4-2.5,173.5,0.9,180.9,0.9z"/>
			</g>
		</g>
	</g>
</g>
</svg>
