<?xml version="1.0" encoding="UTF-8"?><svg id="Calque_1_-_copie" xmlns="http://www.w3.org/2000/svg" viewBox="0 0 503.8 569.4"><defs><style>.cls-1,.cls-2{fill:#fff;}.cls-2{stroke:#fff;stroke-miterlimit:10;stroke-width:11px;}.cls-3{fill:#c89108;}</style></defs><g id="Calque_1_-_copie-2"><g id="Calque_1_-_copie-3"><g id="Calque_1_-_copie-4"><circle class="cls-3" cx="251.9" cy="320.1" r="212.1"/><g id="Calque_2"><path class="cls-3" d="M252.5,114.8c54.9,0,106.4,21.4,145.2,60.1,38.9,38.9,60.1,90.4,60.1,145.2s-21.4,106.4-60.1,145.2c-38.9,38.9-90.4,60.1-145.2,60.1s-106.4-21.3-145.2-60c-38.9-38.9-60.1-90.4-60.1-145.2s21.4-106.4,60.1-145.2c38.8-39,90.4-60.2,145.2-60.2m-.6-49.2C112.7,65.6,0,178.4,0,317.5s112.8,251.9,251.9,251.9,251.9-112.9,251.9-251.9S391.1,65.6,251.9,65.6h0Z"/><path class="cls-1" d="M250.9,353.4h-2.6c-10.4,0-18.8-7.7-18.8-17.1V166.1c0-9.4,8.4-17.1,18.8-17.1h2.6c10.4,0,18.8,7.7,18.8,17.1v170.1c0,9.4-8.6,17.2-18.8,17.2Z"/><path class="cls-2" d="M243.6,348h0c-8.3-6.9-7.6-18.9,1.6-24.9l109.6-71.4c6.8-4.4,16-3.9,22.1,1.2h0c8.3,6.9,7.6,18.9-1.6,24.9l-109.5,71.4c-6.8,4.3-15.9,3.8-22.2-1.2Z"/></g></g></g></g></svg>