<?xml version="1.0" encoding="utf-8"?>
<!-- Generator: Adobe Illustrator 26.2.1, SVG Export Plug-In . SVG Version: 6.00 Build 0)  -->
<svg version="1.1" id="Calque_1" xmlns="http://www.w3.org/2000/svg" xmlns:xlink="http://www.w3.org/1999/xlink" x="0px" y="0px"
	 viewBox="0 0 448 458" style="enable-background:new 0 0 448 458;" xml:space="preserve">
<style type="text/css">
	.st0{display:none;fill:#727780;stroke:#FFFFFF;stroke-width:2;stroke-miterlimit:10;}
	.st1{display:none;fill:none;stroke:#FFFFFF;stroke-width:14;stroke-linecap:round;stroke-miterlimit:10;}
	.st2{fill:#CF4A02;}
</style>
<path class="st0" d="M81.7,411.3c0,23,16.1,41.7,36,41.7l0,0h216c19.9,0,36-18.7,36-41.7l0,0l25.5-302h-339L81.7,411.3z
	 M299.2,202.7c0.7-8,9.3-14,16.7-13.3c7.4,0.6,14.8,8,14.1,16l-19.9,205.1c-0.7,8-7.3,14.1-14.7,13.5s-12.8-7.8-12.1-15.8
	L299.2,202.7z M209.5,203.6c0-8,8-14.7,15.5-14.7c7.4,0,15.5,6.7,15.5,14.7l-2,206c0,8-6,14.7-13.5,14.7c-7.4,0-13.5-6.7-13.5-14.7
	L209.5,203.6z M119.8,205.3c-0.7-8,6.7-15.4,14.1-16c7.4-0.6,16,5.3,16.7,13.3l16,205.4c0.7,8-4.7,15.2-12.1,15.8
	c-7.4,0.6-14-5.5-14.7-13.5C139.8,410.4,119.8,205.3,119.8,205.3z M408,35.8H302.9l-8.6-16.3C290.5,12.4,282.9,8,274.6,8H169.7
	c-8.3,0-16,4.4-19.6,11.6l-8.6,16.3H41.4c-8.1,0-14.7,6.3-14.7,13.9l-10,25.8c0,7.6,6.6,13.9,14.7,13.9H418
	c8.1,0,14.7-6.3,14.7-13.9l-10-25.9C422.7,42.1,416.1,35.8,408,35.8z"/>
<line class="st1" x1="97" y1="150.9" x2="354" y2="150.9"/>
<path class="st2" d="M434.1,370.5L254.8,64.5C241,41,206.4,41,192.6,64.5L13.4,370.5c-13.8,23.5,3.4,53,31,53H403
	C430.5,423.4,447.8,394,434.1,370.5z M203.5,161.2c0-11.1,9-20.2,20.2-20.2s20.2,9.1,20.2,20.2v107.6c0,11.1-9,20.2-19.4,20.2
	s-20.9-9-20.9-20.2V161.2z M223.7,369.6c-14.6,0-26.4-11.8-26.4-26.4c0-14.6,11.8-26.4,26.4-26.4c14.6,0,26.4,11.8,26.4,26.4
	C250.1,357.8,238.3,369.6,223.7,369.6z"/>
</svg>
