<?xml version="1.0" encoding="utf-8"?>
<!-- Generator: Adobe Illustrator 25.4.1, SVG Export Plug-In . SVG Version: 6.00 Build 0)  -->
<svg version="1.1" id="Calque_1" xmlns="http://www.w3.org/2000/svg" xmlns:xlink="http://www.w3.org/1999/xlink" x="0px" y="0px"
	 viewBox="0 0 448 458" style="enable-background:new 0 0 448 458;" xml:space="preserve">
<style type="text/css">
	.st0{fill:#727780;stroke:#FFFFFF;stroke-width:2;stroke-miterlimit:10;}
	.st1{fill:none;stroke:#FFFFFF;stroke-width:14;stroke-linecap:round;stroke-miterlimit:10;}
</style>
<path class="st0" d="M87.2,404.3c0,22.1,15.5,40.1,34.6,40.1l0,0h207.7c19.1,0,34.6-18,34.6-40.1l0,0L388.6,114h-326L87.2,404.3z
	 M296.3,203.8c0.7-7.7,8.9-13.5,16.1-12.8c7.1,0.6,14.2,7.7,13.6,15.4l-19.1,197.2c-0.7,7.7-7,13.6-14.1,13s-12.3-7.5-11.6-15.2
	L296.3,203.8z M210.1,204.6c0-7.7,7.7-14.1,14.9-14.1c7.1,0,14.9,6.4,14.9,14.1L238,402.7c0,7.7-5.8,14.1-13,14.1
	c-7.1,0-13-6.4-13-14.1L210.1,204.6z M123.8,206.3c-0.7-7.7,6.4-14.8,13.6-15.4c7.1-0.6,15.4,5.1,16.1,12.8l15.4,197.5
	c0.7,7.7-4.5,14.6-11.6,15.2c-7.1,0.6-13.5-5.3-14.1-13C143.1,403.5,123.8,206.3,123.8,206.3z M400.9,43.3H299.9l-8.3-15.7
	c-3.7-6.8-11-11.1-18.9-11.1H171.8c-8,0-15.4,4.2-18.8,11.2l-8.3,15.7H48.5c-7.8,0-14.1,6.1-14.1,13.4l-9.6,24.8
	c0,7.3,6.3,13.4,14.1,13.4h371.7c7.8,0,14.1-6.1,14.1-13.4l-9.6-24.9C415.1,49.3,408.7,43.3,400.9,43.3z"/>
<line class="st1" x1="97" y1="150.9" x2="354" y2="150.9"/>
</svg>
