<?xml version="1.0" encoding="utf-8"?>
<!-- Generator: Adobe Illustrator 25.4.1, SVG Export Plug-In . SVG Version: 6.00 Build 0)  -->
<svg version="1.1" id="Calque_1" xmlns="http://www.w3.org/2000/svg" xmlns:xlink="http://www.w3.org/1999/xlink" x="0px" y="0px"
	 viewBox="0 0 448 458" style="enable-background:new 0 0 448 458;" xml:space="preserve">
<style type="text/css">
	.st0{fill:#20558A;}
</style>
<path class="st0" d="M46,404.7c0,22.3,19.7,40.3,44,40.3l0,0h264.2c24.3,0,44-18.1,44-40.3l0,0V122.5H46V404.7z M295.6,189.7
	c0-7.4,6.6-13.4,14.7-13.4s14.7,6,14.7,13.4v188.1c0,7.4-6.6,13.4-14.7,13.4s-14.7-6-14.7-13.4V189.7z M207.5,189.7
	c0-7.4,6.6-13.4,14.7-13.4s14.7,6,14.7,13.4v188.1c0,7.4-6.6,13.4-14.7,13.4s-14.7-6-14.7-13.4V189.7z M119.4,189.7
	c0-7.4,6.6-13.4,14.7-13.4s14.7,6,14.7,13.4v188.1c0,7.4-6.6,13.4-14.7,13.4s-14.7-6-14.7-13.4V189.7z M413,41.9H302.9l-8.6-15.7
	c-3.8-6.9-11.4-11.2-19.7-11.2H169.7c-8.3,0-16,4.3-19.6,11.2l-8.6,15.7H31.4c-8.1,0-14.7,6-14.7,13.4v26.9
	c0,7.4,6.6,13.4,14.7,13.4H413c8.1,0,14.7-6,14.7-13.4V55.3C427.7,47.9,421.1,41.9,413,41.9z"/>
</svg>
