<svg xmlns="http://www.w3.org/2000/svg" viewBox="0 0 30 30">
  <defs>
    <style>
      .cls-1 {
        fill: #198754;
      }
    </style>
  </defs>
  <g id="_table_Docs" data-name="++ table Docs">
    <path class="cls-1" d="M10.58,22q1.71-3,3.65-5.73a55.8,55.8,0,0,1,4.11-5.19c1.46-1.63,1.54-1.59,2-2.07a4.7,4.7,0,0,1,.47-.39A10.54,10.54,0,0,1,25,6.52a6.35,6.35,0,0,1,1.92,0c.22,0,.32.09.31.24a.43.43,0,0,1-.13.27,6.88,6.88,0,0,1-.72.54,40.86,40.86,0,0,0-6.68,6.61,53.45,53.45,0,0,0-6.3,9.38A14.73,14.73,0,0,1,12,25.87c-.25.27-1,.36-2.2.28a2.88,2.88,0,0,1-1.56-.34,11.65,11.65,0,0,1-1-1.38,24.14,24.14,0,0,0-2.74-3.58c-.53-.57-.78-1-.77-1.27s.36-.74,1-1.09A3.18,3.18,0,0,1,6.34,18a3.73,3.73,0,0,1,1.88.9A10.65,10.65,0,0,1,10.58,22Z"/>
  </g>
</svg>
