<?xml version="1.0" encoding="utf-8"?>
<!-- Generator: Adobe Illustrator 25.4.1, SVG Export Plug-In . SVG Version: 6.00 Build 0)  -->
<svg version="1.1" id="Calque_1" xmlns="http://www.w3.org/2000/svg" xmlns:xlink="http://www.w3.org/1999/xlink" x="0px" y="0px"
	 viewBox="0 0 51.3 51.3" style="enable-background:new 0 0 51.3 51.3;" xml:space="preserve">
<style type="text/css">
	.st0{fill:#BABABA;}
</style>
<g id="Calque_3">
	<path class="st0" d="M29.3,3.7C29.3,1.6,31,0,33,0h14.6l0,0c0.6,0,1.1,0.1,1.5,0.3c0.3,0.2,0.8,0.4,1.2,0.8l0,0
		c0.7,0.7,1,1.6,1.1,2.6l0,0v14.7c0,2-1.6,3.7-3.7,3.7S44,20.3,44,18.3v-5.8L24.6,31.9c-1.4,1.4-3.7,1.4-5.2,0
		c-1.4-1.4-1.4-3.7,0-5.2L38.8,7.3H33C31,7.3,29.3,5.7,29.3,3.7L29.3,3.7z"/>
	<path class="st0" d="M0,11c0-4,3.3-7.3,7.3-7.3h11c2,0,3.7,1.6,3.7,3.7c0,2-1.6,3.7-3.7,3.7h-11v33h33V33c0-2,1.6-3.7,3.7-3.7
		s3.7,1.6,3.7,3.7v11c0,4-3.3,7.3-7.3,7.3h-33C3.3,51.3,0,48,0,44V11z"/>
</g>
</svg>
